<mxfile host="app.diagrams.net" modified="2024-01-07T23:33:05.218Z" agent="Mozilla/5.0 (Windows NT 10.0; Win64; x64; rv:121.0) Gecko/20100101 Firefox/121.0" etag="CY_QKJ33_vbT9tWIgXba" version="22.1.17" type="device">
  <diagram id="C5RBs43oDa-KdzZeNtuy" name="Page-1">
    <mxGraphModel dx="2868" dy="1564" grid="1" gridSize="10" guides="1" tooltips="1" connect="1" arrows="1" fold="1" page="1" pageScale="1" pageWidth="1600" pageHeight="1600" math="0" shadow="0">
      <root>
        <mxCell id="WIyWlLk6GJQsqaUBKTNV-0" />
        <mxCell id="WIyWlLk6GJQsqaUBKTNV-1" parent="WIyWlLk6GJQsqaUBKTNV-0" />
        <mxCell id="PG-D2rXeceQ64QqXHUm3-104" value="Intermediates: these classes perform actions on VelocitySources and provide an abstraction for their operations. VelocitySources do not know about these intermediates. Intermediates don&#39;t extend/implement a common class/interface." style="verticalAlign=top;align=left;spacingTop=8;spacingLeft=2;spacingRight=12;shape=cube;size=10;direction=south;fontStyle=0;html=1;whiteSpace=wrap;fontFamily=Helvetica;fontSize=12;fontColor=default;" vertex="1" parent="WIyWlLk6GJQsqaUBKTNV-1">
          <mxGeometry x="270" y="760" width="460" height="430" as="geometry" />
        </mxCell>
        <mxCell id="PG-D2rXeceQ64QqXHUm3-29" value="(Modules part of Godot engine&#39;s library)" style="verticalAlign=top;align=left;spacingTop=8;spacingLeft=2;spacingRight=12;shape=cube;size=10;direction=south;fontStyle=0;html=1;whiteSpace=wrap;" vertex="1" parent="WIyWlLk6GJQsqaUBKTNV-1">
          <mxGeometry x="40" y="10" width="670" height="150" as="geometry" />
        </mxCell>
        <mxCell id="zkfFHV4jXpPFQw0GAbJ--0" value="CharacterBody2D" style="swimlane;fontStyle=0;align=center;verticalAlign=top;childLayout=stackLayout;horizontal=1;startSize=26;horizontalStack=0;resizeParent=1;resizeLast=0;collapsible=1;marginBottom=0;rounded=0;shadow=0;strokeWidth=1;fontFamily=Courier New;" parent="WIyWlLk6GJQsqaUBKTNV-1" vertex="1">
          <mxGeometry x="90" y="50" width="180" height="96" as="geometry">
            <mxRectangle x="220" y="120" width="160" height="26" as="alternateBounds" />
          </mxGeometry>
        </mxCell>
        <mxCell id="PG-D2rXeceQ64QqXHUm3-105" value="Godot’s physics body for user-controlled entities (similar to Unity’s Kinematic RigidBodies)." style="text;strokeColor=none;fillColor=none;align=center;verticalAlign=top;whiteSpace=wrap;rounded=0;glass=0;html=1;" vertex="1" parent="zkfFHV4jXpPFQw0GAbJ--0">
          <mxGeometry y="26" width="180" height="54" as="geometry" />
        </mxCell>
        <mxCell id="PG-D2rXeceQ64QqXHUm3-106" value="" style="line;html=1;strokeWidth=1;align=left;verticalAlign=middle;spacingTop=-1;spacingLeft=3;spacingRight=3;rotatable=0;labelPosition=right;points=[];portConstraint=eastwest;" vertex="1" parent="zkfFHV4jXpPFQw0GAbJ--0">
          <mxGeometry y="80" width="180" height="8" as="geometry" />
        </mxCell>
        <mxCell id="PG-D2rXeceQ64QqXHUm3-30" style="edgeStyle=orthogonalEdgeStyle;rounded=1;orthogonalLoop=1;jettySize=auto;html=1;exitX=0.5;exitY=0;exitDx=0;exitDy=0;entryX=0.5;entryY=1;entryDx=0;entryDy=0;strokeWidth=3;endArrow=block;endFill=1;curved=0;endSize=12;" edge="1" parent="WIyWlLk6GJQsqaUBKTNV-1" source="zkfFHV4jXpPFQw0GAbJ--6" target="zkfFHV4jXpPFQw0GAbJ--0">
          <mxGeometry relative="1" as="geometry" />
        </mxCell>
        <mxCell id="PG-D2rXeceQ64QqXHUm3-83" style="edgeStyle=orthogonalEdgeStyle;shape=connector;curved=0;rounded=1;orthogonalLoop=1;jettySize=auto;html=1;exitX=1;exitY=0.5;exitDx=0;exitDy=0;labelBackgroundColor=default;strokeColor=default;strokeWidth=3;align=center;verticalAlign=middle;fontFamily=Helvetica;fontSize=11;fontColor=default;endArrow=diamondThin;endFill=0;endSize=12;startArrow=open;startFill=0;startSize=12;entryX=0.25;entryY=0;entryDx=0;entryDy=0;" edge="1" parent="WIyWlLk6GJQsqaUBKTNV-1" source="zkfFHV4jXpPFQw0GAbJ--6" target="zkfFHV4jXpPFQw0GAbJ--13">
          <mxGeometry relative="1" as="geometry">
            <mxPoint x="470" y="280" as="targetPoint" />
            <Array as="points">
              <mxPoint x="495" y="265" />
            </Array>
          </mxGeometry>
        </mxCell>
        <mxCell id="zkfFHV4jXpPFQw0GAbJ--6" value="KinematicComp" style="swimlane;fontStyle=0;align=center;verticalAlign=top;childLayout=stackLayout;horizontal=1;startSize=26;horizontalStack=0;resizeParent=1;resizeLast=0;collapsible=1;marginBottom=0;rounded=0;shadow=0;strokeWidth=1;fontFamily=Courier New;" parent="WIyWlLk6GJQsqaUBKTNV-1" vertex="1">
          <mxGeometry x="50" y="200" width="260" height="130" as="geometry">
            <mxRectangle x="130" y="380" width="160" height="26" as="alternateBounds" />
          </mxGeometry>
        </mxCell>
        <mxCell id="PG-D2rXeceQ64QqXHUm3-56" value="A CharacterBody2D with additional behaviors and Godot signals" style="text;strokeColor=none;fillColor=none;align=center;verticalAlign=top;whiteSpace=wrap;rounded=0;glass=0;html=1;" vertex="1" parent="zkfFHV4jXpPFQw0GAbJ--6">
          <mxGeometry y="26" width="260" height="44" as="geometry" />
        </mxCell>
        <mxCell id="zkfFHV4jXpPFQw0GAbJ--9" value="" style="line;html=1;strokeWidth=1;align=left;verticalAlign=middle;spacingTop=-1;spacingLeft=3;spacingRight=3;rotatable=0;labelPosition=right;points=[];portConstraint=eastwest;" parent="zkfFHV4jXpPFQw0GAbJ--6" vertex="1">
          <mxGeometry y="70" width="260" height="8" as="geometry" />
        </mxCell>
        <mxCell id="PG-D2rXeceQ64QqXHUm3-95" value="&lt;font&gt;+ LinkDefaultPhys(DefaultPhys phys)&lt;/font&gt;" style="text;strokeColor=none;fillColor=none;align=left;verticalAlign=top;whiteSpace=wrap;rounded=0;glass=0;html=1;fontFamily=Courier New;" vertex="1" parent="zkfFHV4jXpPFQw0GAbJ--6">
          <mxGeometry y="78" width="260" height="52" as="geometry" />
        </mxCell>
        <mxCell id="PG-D2rXeceQ64QqXHUm3-32" style="edgeStyle=orthogonalEdgeStyle;rounded=1;orthogonalLoop=1;jettySize=auto;html=1;exitX=0.5;exitY=0;exitDx=0;exitDy=0;entryX=0.5;entryY=1;entryDx=0;entryDy=0;endArrow=block;endFill=1;strokeWidth=3;curved=0;endSize=12;startSize=12;" edge="1" parent="WIyWlLk6GJQsqaUBKTNV-1" source="zkfFHV4jXpPFQw0GAbJ--13" target="zkfFHV4jXpPFQw0GAbJ--17">
          <mxGeometry relative="1" as="geometry" />
        </mxCell>
        <mxCell id="PG-D2rXeceQ64QqXHUm3-38" style="edgeStyle=orthogonalEdgeStyle;rounded=1;orthogonalLoop=1;jettySize=auto;html=1;exitX=1;exitY=0.5;exitDx=0;exitDy=0;entryX=0;entryY=0.5;entryDx=0;entryDy=0;strokeWidth=3;endArrow=open;endFill=0;curved=0;endSize=12;startArrow=diamondThin;startFill=0;startSize=12;" edge="1" parent="WIyWlLk6GJQsqaUBKTNV-1" source="zkfFHV4jXpPFQw0GAbJ--13" target="PG-D2rXeceQ64QqXHUm3-11">
          <mxGeometry relative="1" as="geometry" />
        </mxCell>
        <mxCell id="PG-D2rXeceQ64QqXHUm3-64" style="edgeStyle=orthogonalEdgeStyle;shape=connector;curved=0;rounded=1;orthogonalLoop=1;jettySize=auto;html=1;exitX=1;exitY=0.5;exitDx=0;exitDy=0;entryX=0;entryY=0.5;entryDx=0;entryDy=0;labelBackgroundColor=default;strokeColor=default;strokeWidth=3;align=center;verticalAlign=middle;fontFamily=Helvetica;fontSize=11;fontColor=default;endArrow=open;endFill=0;endSize=12;startArrow=diamondThin;startFill=0;sourcePerimeterSpacing=0;targetPerimeterSpacing=0;jumpSize=6;startSize=12;" edge="1" parent="WIyWlLk6GJQsqaUBKTNV-1" source="zkfFHV4jXpPFQw0GAbJ--13" target="PG-D2rXeceQ64QqXHUm3-14">
          <mxGeometry relative="1" as="geometry">
            <Array as="points">
              <mxPoint x="720" y="395" />
              <mxPoint x="720" y="600" />
            </Array>
          </mxGeometry>
        </mxCell>
        <mxCell id="zkfFHV4jXpPFQw0GAbJ--17" value="Node" style="swimlane;fontStyle=0;align=center;verticalAlign=top;childLayout=stackLayout;horizontal=1;startSize=26;horizontalStack=0;resizeParent=1;resizeLast=0;collapsible=1;marginBottom=0;rounded=0;shadow=0;strokeWidth=1;fontFamily=Courier New;" parent="WIyWlLk6GJQsqaUBKTNV-1" vertex="1">
          <mxGeometry x="469.45" y="50" width="170" height="80" as="geometry">
            <mxRectangle x="550" y="140" width="160" height="26" as="alternateBounds" />
          </mxGeometry>
        </mxCell>
        <mxCell id="PG-D2rXeceQ64QqXHUm3-107" value="Godot’s basic building block for entities." style="text;strokeColor=none;fillColor=none;align=center;verticalAlign=top;whiteSpace=wrap;rounded=0;glass=0;html=1;" vertex="1" parent="zkfFHV4jXpPFQw0GAbJ--17">
          <mxGeometry y="26" width="170" height="44" as="geometry" />
        </mxCell>
        <mxCell id="zkfFHV4jXpPFQw0GAbJ--23" value="" style="line;html=1;strokeWidth=1;align=left;verticalAlign=middle;spacingTop=-1;spacingLeft=3;spacingRight=3;rotatable=0;labelPosition=right;points=[];portConstraint=eastwest;" parent="zkfFHV4jXpPFQw0GAbJ--17" vertex="1">
          <mxGeometry y="70" width="170" height="8" as="geometry" />
        </mxCell>
        <mxCell id="PG-D2rXeceQ64QqXHUm3-34" style="edgeStyle=orthogonalEdgeStyle;rounded=1;orthogonalLoop=1;jettySize=auto;html=1;exitX=0.5;exitY=0;exitDx=0;exitDy=0;strokeWidth=3;endArrow=block;endFill=1;curved=0;endSize=12;entryX=0.5;entryY=1;entryDx=0;entryDy=0;" edge="1" parent="WIyWlLk6GJQsqaUBKTNV-1" source="PG-D2rXeceQ64QqXHUm3-2" target="PG-D2rXeceQ64QqXHUm3-128">
          <mxGeometry relative="1" as="geometry">
            <mxPoint x="190" y="560" as="targetPoint" />
          </mxGeometry>
        </mxCell>
        <mxCell id="PG-D2rXeceQ64QqXHUm3-65" style="edgeStyle=orthogonalEdgeStyle;shape=connector;curved=0;rounded=1;orthogonalLoop=1;jettySize=auto;html=1;exitX=1;exitY=0.5;exitDx=0;exitDy=0;entryX=0;entryY=0.5;entryDx=0;entryDy=0;labelBackgroundColor=default;strokeColor=default;strokeWidth=3;align=left;verticalAlign=bottom;fontFamily=Helvetica;fontSize=11;fontColor=default;endArrow=open;endFill=0;endSize=12;startArrow=diamondThin;startFill=0;startSize=12;" edge="1" parent="WIyWlLk6GJQsqaUBKTNV-1" source="PG-D2rXeceQ64QqXHUm3-2" target="PG-D2rXeceQ64QqXHUm3-8">
          <mxGeometry relative="1" as="geometry" />
        </mxCell>
        <mxCell id="PG-D2rXeceQ64QqXHUm3-2" value="Player" style="swimlane;fontStyle=0;align=center;verticalAlign=top;childLayout=stackLayout;horizontal=1;startSize=26;horizontalStack=0;resizeParent=1;resizeLast=0;collapsible=1;marginBottom=0;rounded=0;shadow=0;strokeWidth=1;fontFamily=Courier New;" vertex="1" parent="WIyWlLk6GJQsqaUBKTNV-1">
          <mxGeometry x="55" y="555" width="250" height="100" as="geometry">
            <mxRectangle x="130" y="380" width="160" height="26" as="alternateBounds" />
          </mxGeometry>
        </mxCell>
        <mxCell id="PG-D2rXeceQ64QqXHUm3-72" value="Governs behaviors and interactions between different components of the player (incl. non-physics components)" style="text;strokeColor=none;fillColor=none;align=center;verticalAlign=top;whiteSpace=wrap;rounded=0;glass=0;html=1;" vertex="1" parent="PG-D2rXeceQ64QqXHUm3-2">
          <mxGeometry y="26" width="250" height="54" as="geometry" />
        </mxCell>
        <mxCell id="PG-D2rXeceQ64QqXHUm3-5" value="" style="line;html=1;strokeWidth=1;align=left;verticalAlign=middle;spacingTop=-1;spacingLeft=3;spacingRight=3;rotatable=0;labelPosition=right;points=[];portConstraint=eastwest;" vertex="1" parent="PG-D2rXeceQ64QqXHUm3-2">
          <mxGeometry y="80" width="250" height="8" as="geometry" />
        </mxCell>
        <mxCell id="PG-D2rXeceQ64QqXHUm3-35" style="edgeStyle=orthogonalEdgeStyle;rounded=1;orthogonalLoop=1;jettySize=auto;html=1;exitX=0.5;exitY=0;exitDx=0;exitDy=0;entryX=0.5;entryY=1;entryDx=0;entryDy=0;strokeWidth=3;endArrow=block;endFill=1;curved=0;endSize=12;" edge="1" parent="WIyWlLk6GJQsqaUBKTNV-1" source="PG-D2rXeceQ64QqXHUm3-8" target="zkfFHV4jXpPFQw0GAbJ--13">
          <mxGeometry relative="1" as="geometry" />
        </mxCell>
        <mxCell id="PG-D2rXeceQ64QqXHUm3-41" style="edgeStyle=orthogonalEdgeStyle;rounded=1;orthogonalLoop=1;jettySize=auto;html=1;exitX=0.5;exitY=1;exitDx=0;exitDy=0;strokeWidth=3;endArrow=open;endFill=0;curved=0;endSize=12;entryX=0;entryY=0.5;entryDx=0;entryDy=0;startArrow=diamondThin;startFill=0;startSize=12;" edge="1" parent="WIyWlLk6GJQsqaUBKTNV-1" source="PG-D2rXeceQ64QqXHUm3-8" target="PG-D2rXeceQ64QqXHUm3-20">
          <mxGeometry relative="1" as="geometry">
            <mxPoint x="730" y="730" as="targetPoint" />
            <Array as="points">
              <mxPoint x="554" y="730" />
              <mxPoint x="220" y="730" />
              <mxPoint x="220" y="1025" />
            </Array>
          </mxGeometry>
        </mxCell>
        <mxCell id="PG-D2rXeceQ64QqXHUm3-44" style="edgeStyle=orthogonalEdgeStyle;rounded=1;orthogonalLoop=1;jettySize=auto;html=1;exitX=0.5;exitY=1;exitDx=0;exitDy=0;entryX=0.5;entryY=1;entryDx=0;entryDy=0;strokeWidth=3;endArrow=open;endFill=0;curved=0;endSize=12;startArrow=diamondThin;startFill=0;startSize=12;" edge="1" parent="WIyWlLk6GJQsqaUBKTNV-1" source="PG-D2rXeceQ64QqXHUm3-8" target="PG-D2rXeceQ64QqXHUm3-23">
          <mxGeometry relative="1" as="geometry">
            <Array as="points">
              <mxPoint x="554" y="730" />
              <mxPoint x="220" y="730" />
              <mxPoint x="220" y="1380" />
              <mxPoint x="794" y="1380" />
            </Array>
          </mxGeometry>
        </mxCell>
        <mxCell id="PG-D2rXeceQ64QqXHUm3-45" style="edgeStyle=orthogonalEdgeStyle;rounded=1;orthogonalLoop=1;jettySize=auto;html=1;exitX=0.5;exitY=1;exitDx=0;exitDy=0;entryX=0.5;entryY=1;entryDx=0;entryDy=0;strokeWidth=3;endArrow=open;endFill=0;curved=0;endSize=12;startArrow=diamondThin;startFill=0;startSize=12;" edge="1" parent="WIyWlLk6GJQsqaUBKTNV-1" source="PG-D2rXeceQ64QqXHUm3-8" target="PG-D2rXeceQ64QqXHUm3-26">
          <mxGeometry relative="1" as="geometry">
            <Array as="points">
              <mxPoint x="554" y="730" />
              <mxPoint x="220" y="730" />
              <mxPoint x="220" y="1380" />
              <mxPoint x="1045" y="1380" />
            </Array>
          </mxGeometry>
        </mxCell>
        <mxCell id="PG-D2rXeceQ64QqXHUm3-84" style="edgeStyle=orthogonalEdgeStyle;shape=connector;curved=0;rounded=1;orthogonalLoop=1;jettySize=auto;html=1;entryX=1;entryY=0.75;entryDx=0;entryDy=0;labelBackgroundColor=default;strokeColor=default;strokeWidth=3;align=center;verticalAlign=middle;fontFamily=Helvetica;fontSize=11;fontColor=default;endArrow=open;endFill=0;endSize=12;exitX=0;exitY=0.25;exitDx=0;exitDy=0;startArrow=diamondThin;startFill=0;startSize=12;" edge="1" parent="WIyWlLk6GJQsqaUBKTNV-1" source="PG-D2rXeceQ64QqXHUm3-8" target="zkfFHV4jXpPFQw0GAbJ--6">
          <mxGeometry relative="1" as="geometry">
            <mxPoint x="380" y="540" as="sourcePoint" />
            <Array as="points">
              <mxPoint x="370" y="563" />
              <mxPoint x="370" y="298" />
            </Array>
          </mxGeometry>
        </mxCell>
        <mxCell id="PG-D2rXeceQ64QqXHUm3-8" value="PlayerVelocityAggregate" style="swimlane;fontStyle=0;align=center;verticalAlign=top;childLayout=stackLayout;horizontal=1;startSize=26;horizontalStack=0;resizeParent=1;resizeLast=0;collapsible=1;marginBottom=0;rounded=0;shadow=0;strokeWidth=1;fontFamily=Courier New;" vertex="1" parent="WIyWlLk6GJQsqaUBKTNV-1">
          <mxGeometry x="430" y="520" width="248.89" height="170" as="geometry">
            <mxRectangle x="340" y="380" width="170" height="26" as="alternateBounds" />
          </mxGeometry>
        </mxCell>
        <mxCell id="PG-D2rXeceQ64QqXHUm3-88" value="Combines the behavior of the associated VelocitySources and intermediates to define the movement of the player. Makes sure they all interact nicely with each other." style="text;strokeColor=none;fillColor=none;align=center;verticalAlign=top;whiteSpace=wrap;rounded=0;glass=0;html=1;" vertex="1" parent="PG-D2rXeceQ64QqXHUm3-8">
          <mxGeometry y="26" width="248.89" height="64" as="geometry" />
        </mxCell>
        <mxCell id="PG-D2rXeceQ64QqXHUm3-10" value="" style="line;html=1;strokeWidth=1;align=left;verticalAlign=middle;spacingTop=-1;spacingLeft=3;spacingRight=3;rotatable=0;labelPosition=right;points=[];portConstraint=eastwest;" vertex="1" parent="PG-D2rXeceQ64QqXHUm3-8">
          <mxGeometry y="90" width="248.89" height="8" as="geometry" />
        </mxCell>
        <mxCell id="PG-D2rXeceQ64QqXHUm3-89" value="&lt;div&gt;+ MoveLeft()&lt;/div&gt;&lt;div&gt;+ MoveRight()&lt;/div&gt;&lt;div&gt;+ AttemptJump()&lt;/div&gt;&lt;div&gt;+ JumpCancel()&lt;br&gt;&lt;/div&gt;" style="text;strokeColor=none;fillColor=none;align=left;verticalAlign=top;whiteSpace=wrap;rounded=0;glass=0;html=1;fontFamily=Courier New;" vertex="1" parent="PG-D2rXeceQ64QqXHUm3-8">
          <mxGeometry y="98" width="248.89" height="72" as="geometry" />
        </mxCell>
        <mxCell id="PG-D2rXeceQ64QqXHUm3-11" value="&lt;abstract&gt; DefaultPhys" style="swimlane;fontStyle=0;align=center;verticalAlign=top;childLayout=stackLayout;horizontal=1;startSize=26;horizontalStack=0;resizeParent=1;resizeLast=0;collapsible=1;marginBottom=0;rounded=0;shadow=0;strokeWidth=1;fontFamily=Courier New;" vertex="1" parent="WIyWlLk6GJQsqaUBKTNV-1">
          <mxGeometry x="790" y="300" width="310" height="190" as="geometry">
            <mxRectangle x="340" y="380" width="170" height="26" as="alternateBounds" />
          </mxGeometry>
        </mxCell>
        <mxCell id="PG-D2rXeceQ64QqXHUm3-90" value="Meant for defining &quot;default physics behaviors&quot; of VelocitySources and intermediates, since their actions are not dependent on physics by default" style="text;strokeColor=none;fillColor=none;align=center;verticalAlign=top;whiteSpace=wrap;rounded=0;glass=0;html=1;" vertex="1" parent="PG-D2rXeceQ64QqXHUm3-11">
          <mxGeometry y="26" width="310" height="54" as="geometry" />
        </mxCell>
        <mxCell id="PG-D2rXeceQ64QqXHUm3-13" value="" style="line;html=1;strokeWidth=1;align=left;verticalAlign=middle;spacingTop=-1;spacingLeft=3;spacingRight=3;rotatable=0;labelPosition=right;points=[];portConstraint=eastwest;" vertex="1" parent="PG-D2rXeceQ64QqXHUm3-11">
          <mxGeometry y="80" width="310" height="8" as="geometry" />
        </mxCell>
        <mxCell id="PG-D2rXeceQ64QqXHUm3-91" value="&lt;div&gt;+ Link(KinematicComp physics)&lt;br&gt;&lt;/div&gt;&lt;div&gt;+ OnBecomeOnFloor(KinematicComp physics)&lt;br&gt;&lt;/div&gt;&lt;div&gt;+ OnBecomeOffWall(KinematicComp physics)&lt;/div&gt;&lt;div&gt;+ OnDirectionChangeX(KinematicComp physics, float newDirection)&lt;/div&gt;&lt;div&gt;+ On...&lt;br&gt;&lt;/div&gt;" style="text;strokeColor=none;fillColor=none;align=left;verticalAlign=top;whiteSpace=wrap;rounded=0;glass=0;html=1;fontFamily=Courier New;" vertex="1" parent="PG-D2rXeceQ64QqXHUm3-11">
          <mxGeometry y="88" width="310" height="102" as="geometry" />
        </mxCell>
        <mxCell id="PG-D2rXeceQ64QqXHUm3-14" value="&lt;abstract&gt; VelocitySource" style="swimlane;fontStyle=0;align=center;verticalAlign=top;childLayout=stackLayout;horizontal=1;startSize=26;horizontalStack=0;resizeParent=1;resizeLast=0;collapsible=1;marginBottom=0;rounded=0;shadow=0;strokeWidth=1;fontFamily=Courier New;" vertex="1" parent="WIyWlLk6GJQsqaUBKTNV-1">
          <mxGeometry x="1070" y="520" width="380" height="160" as="geometry">
            <mxRectangle x="340" y="380" width="170" height="26" as="alternateBounds" />
          </mxGeometry>
        </mxCell>
        <mxCell id="PG-D2rXeceQ64QqXHUm3-92" value="Acts as an individual part of an VelocityAggregate&#39;s velocity, that can determine its own velocity independently of other VelocitySources" style="text;strokeColor=none;fillColor=none;align=center;verticalAlign=top;whiteSpace=wrap;rounded=0;glass=0;html=1;" vertex="1" parent="PG-D2rXeceQ64QqXHUm3-14">
          <mxGeometry y="26" width="380" height="54" as="geometry" />
        </mxCell>
        <mxCell id="PG-D2rXeceQ64QqXHUm3-16" value="" style="line;html=1;strokeWidth=1;align=left;verticalAlign=middle;spacingTop=-1;spacingLeft=3;spacingRight=3;rotatable=0;labelPosition=right;points=[];portConstraint=eastwest;" vertex="1" parent="PG-D2rXeceQ64QqXHUm3-14">
          <mxGeometry y="80" width="380" height="8" as="geometry" />
        </mxCell>
        <mxCell id="PG-D2rXeceQ64QqXHUm3-93" value="&lt;div&gt;+ Vector2 Velocity { get {...} }&lt;br&gt;&lt;/div&gt;&lt;div&gt;+ SmoothlySetBaseVelocityX(float to, float duration)&lt;br&gt;+ SmoothlySetBaseVelocityY(float to, float duration)&lt;/div&gt;&lt;div&gt;+ SmoothlySet...&lt;br&gt;&lt;/div&gt;" style="text;strokeColor=none;fillColor=none;align=left;verticalAlign=top;whiteSpace=wrap;rounded=0;glass=0;html=1;fontFamily=Courier New;" vertex="1" parent="PG-D2rXeceQ64QqXHUm3-14">
          <mxGeometry y="88" width="380" height="72" as="geometry" />
        </mxCell>
        <mxCell id="PG-D2rXeceQ64QqXHUm3-40" style="edgeStyle=orthogonalEdgeStyle;rounded=1;orthogonalLoop=1;jettySize=auto;html=1;exitX=0.5;exitY=0;exitDx=0;exitDy=0;entryX=0.5;entryY=1;entryDx=0;entryDy=0;strokeWidth=3;endArrow=block;endFill=1;curved=0;dashed=1;endSize=12;" edge="1" parent="WIyWlLk6GJQsqaUBKTNV-1" source="PG-D2rXeceQ64QqXHUm3-17" target="PG-D2rXeceQ64QqXHUm3-14">
          <mxGeometry relative="1" as="geometry" />
        </mxCell>
        <mxCell id="PG-D2rXeceQ64QqXHUm3-17" value="Falling" style="swimlane;fontStyle=0;align=center;verticalAlign=top;childLayout=stackLayout;horizontal=1;startSize=26;horizontalStack=0;resizeParent=1;resizeLast=0;collapsible=1;marginBottom=0;rounded=0;shadow=0;strokeWidth=1;fontFamily=Courier New;" vertex="1" parent="WIyWlLk6GJQsqaUBKTNV-1">
          <mxGeometry x="1105" y="965" width="310" height="120" as="geometry">
            <mxRectangle x="340" y="380" width="170" height="26" as="alternateBounds" />
          </mxGeometry>
        </mxCell>
        <mxCell id="PG-D2rXeceQ64QqXHUm3-96" value="A source of velocity representing falling due to gravity. A Falling&#39;s y-velocity is not necessarily zero/downwards (e.g. an intermediate can set its velocity to upwards)" style="text;strokeColor=none;fillColor=none;align=center;verticalAlign=top;whiteSpace=wrap;rounded=0;glass=0;html=1;" vertex="1" parent="PG-D2rXeceQ64QqXHUm3-17">
          <mxGeometry y="26" width="310" height="54" as="geometry" />
        </mxCell>
        <mxCell id="PG-D2rXeceQ64QqXHUm3-19" value="" style="line;html=1;strokeWidth=1;align=left;verticalAlign=middle;spacingTop=-1;spacingLeft=3;spacingRight=3;rotatable=0;labelPosition=right;points=[];portConstraint=eastwest;" vertex="1" parent="PG-D2rXeceQ64QqXHUm3-17">
          <mxGeometry y="80" width="310" height="8" as="geometry" />
        </mxCell>
        <mxCell id="PG-D2rXeceQ64QqXHUm3-98" value="&lt;div&gt;+ bool IsFalling { get {...} set {...} }&lt;br&gt;&lt;/div&gt;" style="text;strokeColor=none;fillColor=none;align=left;verticalAlign=top;whiteSpace=wrap;rounded=0;glass=0;html=1;fontFamily=Courier New;" vertex="1" parent="PG-D2rXeceQ64QqXHUm3-17">
          <mxGeometry y="88" width="310" height="32" as="geometry" />
        </mxCell>
        <mxCell id="PG-D2rXeceQ64QqXHUm3-127" style="edgeStyle=orthogonalEdgeStyle;shape=connector;curved=0;rounded=1;orthogonalLoop=1;jettySize=auto;html=1;exitX=0.5;exitY=0;exitDx=0;exitDy=0;labelBackgroundColor=default;strokeColor=default;strokeWidth=3;align=center;verticalAlign=middle;fontFamily=Helvetica;fontSize=11;fontColor=default;endArrow=block;endFill=1;endSize=12;entryX=0.5;entryY=1;entryDx=0;entryDy=0;" edge="1" parent="WIyWlLk6GJQsqaUBKTNV-1" source="PG-D2rXeceQ64QqXHUm3-20" target="zkfFHV4jXpPFQw0GAbJ--17">
          <mxGeometry relative="1" as="geometry">
            <mxPoint x="600" y="230" as="targetPoint" />
            <Array as="points">
              <mxPoint x="490" y="860" />
              <mxPoint x="1500" y="860" />
              <mxPoint x="1500" y="260" />
              <mxPoint x="555" y="260" />
            </Array>
          </mxGeometry>
        </mxCell>
        <mxCell id="PG-D2rXeceQ64QqXHUm3-20" value="Jumping" style="swimlane;fontStyle=0;align=center;verticalAlign=top;childLayout=stackLayout;horizontal=1;startSize=26;horizontalStack=0;resizeParent=1;resizeLast=0;collapsible=1;marginBottom=0;rounded=0;shadow=0;strokeWidth=1;fontFamily=Courier New;" vertex="1" parent="WIyWlLk6GJQsqaUBKTNV-1">
          <mxGeometry x="320" y="905" width="340" height="240" as="geometry">
            <mxRectangle x="340" y="380" width="170" height="26" as="alternateBounds" />
          </mxGeometry>
        </mxCell>
        <mxCell id="PG-D2rXeceQ64QqXHUm3-100" value="Controls a Falling in order to give it movement as if it&#39;s jumping. Can do ground jumps, air jumps, and wall jumps and can have different jump behavior for each. Also handles coyote jumping and buffered jumping." style="text;strokeColor=none;fillColor=none;align=center;verticalAlign=top;whiteSpace=wrap;rounded=0;glass=0;html=1;" vertex="1" parent="PG-D2rXeceQ64QqXHUm3-20">
          <mxGeometry y="26" width="340" height="64" as="geometry" />
        </mxCell>
        <mxCell id="PG-D2rXeceQ64QqXHUm3-109" value="" style="line;html=1;strokeWidth=1;align=left;verticalAlign=middle;spacingTop=-1;spacingLeft=3;spacingRight=3;rotatable=0;labelPosition=right;points=[];portConstraint=eastwest;" vertex="1" parent="PG-D2rXeceQ64QqXHUm3-20">
          <mxGeometry y="90" width="340" height="8" as="geometry" />
        </mxCell>
        <mxCell id="PG-D2rXeceQ64QqXHUm3-101" value="&lt;div&gt;+ int NumAirJumps { get {...} set {...} }&lt;/div&gt;&lt;div&gt;+ int Num...Jumps...&lt;/div&gt;&lt;div&gt;+ AttemptJump()&lt;/div&gt;&lt;div&gt;+ JumpCancel()&lt;/div&gt;&lt;div&gt;+ ResetNumJumps()&lt;br&gt;&lt;/div&gt;&lt;div&gt;+ TransitionToGround()&lt;/div&gt;&lt;div&gt;+ TransitionToAir()&lt;/div&gt;&lt;div&gt;+ TransitionToWall()&lt;br&gt;&lt;/div&gt;" style="text;strokeColor=none;fillColor=none;align=left;verticalAlign=top;whiteSpace=wrap;rounded=0;glass=0;html=1;fontFamily=Courier New;" vertex="1" parent="PG-D2rXeceQ64QqXHUm3-20">
          <mxGeometry y="98" width="340" height="130" as="geometry" />
        </mxCell>
        <mxCell id="PG-D2rXeceQ64QqXHUm3-42" style="edgeStyle=orthogonalEdgeStyle;rounded=1;orthogonalLoop=1;jettySize=auto;html=1;exitX=0.5;exitY=0;exitDx=0;exitDy=0;strokeWidth=3;endArrow=block;endFill=1;curved=0;dashed=1;entryX=0.5;entryY=1;entryDx=0;entryDy=0;endSize=12;" edge="1" parent="WIyWlLk6GJQsqaUBKTNV-1" source="PG-D2rXeceQ64QqXHUm3-23" target="PG-D2rXeceQ64QqXHUm3-91">
          <mxGeometry relative="1" as="geometry">
            <mxPoint x="1035" y="500" as="targetPoint" />
            <Array as="points">
              <mxPoint x="794" y="1130" />
              <mxPoint x="945" y="1130" />
            </Array>
          </mxGeometry>
        </mxCell>
        <mxCell id="PG-D2rXeceQ64QqXHUm3-67" style="edgeStyle=orthogonalEdgeStyle;shape=connector;curved=0;rounded=1;orthogonalLoop=1;jettySize=auto;html=1;exitX=0;exitY=0.5;exitDx=0;exitDy=0;entryX=0.5;entryY=1;entryDx=0;entryDy=0;labelBackgroundColor=default;strokeColor=default;strokeWidth=3;align=center;verticalAlign=middle;fontFamily=Helvetica;fontSize=11;fontColor=default;endArrow=open;endFill=0;endSize=12;startArrow=diamondThin;startFill=0;startSize=12;" edge="1" parent="WIyWlLk6GJQsqaUBKTNV-1" source="PG-D2rXeceQ64QqXHUm3-23" target="PG-D2rXeceQ64QqXHUm3-20">
          <mxGeometry relative="1" as="geometry" />
        </mxCell>
        <mxCell id="PG-D2rXeceQ64QqXHUm3-23" value="JumpingDefaultPhys" style="swimlane;fontStyle=0;align=center;verticalAlign=top;childLayout=stackLayout;horizontal=1;startSize=26;horizontalStack=0;resizeParent=1;resizeLast=0;collapsible=1;marginBottom=0;rounded=0;shadow=0;strokeWidth=1;fontFamily=Courier New;" vertex="1" parent="WIyWlLk6GJQsqaUBKTNV-1">
          <mxGeometry x="678.89" y="1210" width="230" height="130" as="geometry">
            <mxRectangle x="340" y="380" width="170" height="26" as="alternateBounds" />
          </mxGeometry>
        </mxCell>
        <mxCell id="PG-D2rXeceQ64QqXHUm3-102" value="Default behavior for what a Jumping will do, based on the actions of a KinematicComp, such as transitioning to the air when not touching a floor/wall." style="text;strokeColor=none;fillColor=none;align=center;verticalAlign=top;whiteSpace=wrap;rounded=0;glass=0;html=1;" vertex="1" parent="PG-D2rXeceQ64QqXHUm3-23">
          <mxGeometry y="26" width="230" height="84" as="geometry" />
        </mxCell>
        <mxCell id="PG-D2rXeceQ64QqXHUm3-25" value="" style="line;html=1;strokeWidth=1;align=left;verticalAlign=middle;spacingTop=-1;spacingLeft=3;spacingRight=3;rotatable=0;labelPosition=right;points=[];portConstraint=eastwest;" vertex="1" parent="PG-D2rXeceQ64QqXHUm3-23">
          <mxGeometry y="110" width="230" height="8" as="geometry" />
        </mxCell>
        <mxCell id="PG-D2rXeceQ64QqXHUm3-43" style="edgeStyle=orthogonalEdgeStyle;rounded=1;orthogonalLoop=1;jettySize=auto;html=1;exitX=0.5;exitY=0;exitDx=0;exitDy=0;entryX=0.5;entryY=1;entryDx=0;entryDy=0;strokeWidth=3;endArrow=block;endFill=1;curved=0;dashed=1;endSize=12;" edge="1" parent="WIyWlLk6GJQsqaUBKTNV-1" source="PG-D2rXeceQ64QqXHUm3-26" target="PG-D2rXeceQ64QqXHUm3-11">
          <mxGeometry relative="1" as="geometry">
            <Array as="points">
              <mxPoint x="1045" y="1130" />
              <mxPoint x="945" y="1130" />
            </Array>
          </mxGeometry>
        </mxCell>
        <mxCell id="PG-D2rXeceQ64QqXHUm3-68" style="edgeStyle=orthogonalEdgeStyle;shape=connector;curved=0;rounded=1;orthogonalLoop=1;jettySize=auto;html=1;exitX=1;exitY=0.5;exitDx=0;exitDy=0;entryX=0.5;entryY=1;entryDx=0;entryDy=0;labelBackgroundColor=default;strokeColor=default;strokeWidth=3;align=center;verticalAlign=middle;fontFamily=Helvetica;fontSize=11;fontColor=default;endArrow=open;endFill=0;endSize=12;startArrow=diamondThin;startFill=0;startSize=12;" edge="1" parent="WIyWlLk6GJQsqaUBKTNV-1" source="PG-D2rXeceQ64QqXHUm3-26" target="PG-D2rXeceQ64QqXHUm3-17">
          <mxGeometry relative="1" as="geometry" />
        </mxCell>
        <mxCell id="PG-D2rXeceQ64QqXHUm3-26" value="FallingDefaultPhys" style="swimlane;fontStyle=0;align=center;verticalAlign=top;childLayout=stackLayout;horizontal=1;startSize=26;horizontalStack=0;resizeParent=1;resizeLast=0;collapsible=1;marginBottom=0;rounded=0;shadow=0;strokeWidth=1;fontFamily=Courier New;" vertex="1" parent="WIyWlLk6GJQsqaUBKTNV-1">
          <mxGeometry x="930" y="1210" width="230" height="130" as="geometry">
            <mxRectangle x="340" y="380" width="170" height="26" as="alternateBounds" />
          </mxGeometry>
        </mxCell>
        <mxCell id="PG-D2rXeceQ64QqXHUm3-103" value="Default behavior for what a Falling will do, based on the actions of a KinematicComp, such as starting and stopping falling when becoming off and on the floor, respectively." style="text;strokeColor=none;fillColor=none;align=center;verticalAlign=top;whiteSpace=wrap;rounded=0;glass=0;html=1;" vertex="1" parent="PG-D2rXeceQ64QqXHUm3-26">
          <mxGeometry y="26" width="230" height="84" as="geometry" />
        </mxCell>
        <mxCell id="PG-D2rXeceQ64QqXHUm3-28" value="" style="line;html=1;strokeWidth=1;align=left;verticalAlign=middle;spacingTop=-1;spacingLeft=3;spacingRight=3;rotatable=0;labelPosition=right;points=[];portConstraint=eastwest;" vertex="1" parent="PG-D2rXeceQ64QqXHUm3-26">
          <mxGeometry y="110" width="230" height="8" as="geometry" />
        </mxCell>
        <mxCell id="PG-D2rXeceQ64QqXHUm3-46" style="edgeStyle=orthogonalEdgeStyle;rounded=1;orthogonalLoop=1;jettySize=auto;html=1;exitX=1;exitY=0.5;exitDx=0;exitDy=0;entryX=0;entryY=0.5;entryDx=0;entryDy=0;strokeWidth=3;endArrow=open;endFill=0;curved=0;endSize=12;startArrow=diamondThin;startFill=0;startSize=12;" edge="1" parent="WIyWlLk6GJQsqaUBKTNV-1" source="PG-D2rXeceQ64QqXHUm3-20" target="PG-D2rXeceQ64QqXHUm3-17">
          <mxGeometry relative="1" as="geometry">
            <mxPoint x="610" y="889" as="sourcePoint" />
          </mxGeometry>
        </mxCell>
        <mxCell id="PG-D2rXeceQ64QqXHUm3-97" style="edgeStyle=orthogonalEdgeStyle;shape=connector;curved=0;rounded=1;orthogonalLoop=1;jettySize=auto;html=1;exitX=0.5;exitY=1;exitDx=0;exitDy=0;labelBackgroundColor=default;strokeColor=default;strokeWidth=3;align=center;verticalAlign=middle;fontFamily=Helvetica;fontSize=11;fontColor=default;endArrow=open;endFill=0;endSize=12;entryX=0.75;entryY=1;entryDx=0;entryDy=0;startArrow=diamondThin;startFill=0;startSize=12;" edge="1" parent="WIyWlLk6GJQsqaUBKTNV-1" source="PG-D2rXeceQ64QqXHUm3-89" target="PG-D2rXeceQ64QqXHUm3-98">
          <mxGeometry relative="1" as="geometry">
            <mxPoint x="1470" y="830" as="targetPoint" />
            <Array as="points">
              <mxPoint x="554" y="730" />
              <mxPoint x="220" y="730" />
              <mxPoint x="220" y="1380" />
              <mxPoint x="1338" y="1380" />
            </Array>
          </mxGeometry>
        </mxCell>
        <mxCell id="zkfFHV4jXpPFQw0GAbJ--13" value="VelocityAggregate" style="swimlane;fontStyle=0;align=center;verticalAlign=top;childLayout=stackLayout;horizontal=1;startSize=26;horizontalStack=0;resizeParent=1;resizeLast=0;collapsible=1;marginBottom=0;rounded=0;shadow=0;strokeWidth=1;fontFamily=Courier New;" parent="WIyWlLk6GJQsqaUBKTNV-1" vertex="1">
          <mxGeometry x="434.45" y="320" width="240" height="150" as="geometry">
            <mxRectangle x="340" y="380" width="170" height="26" as="alternateBounds" />
          </mxGeometry>
        </mxCell>
        <mxCell id="PG-D2rXeceQ64QqXHUm3-85" value="Contains VelocitySources; can aggregate them into one velocity vector by adding up the velocity vectors for each of them" style="text;strokeColor=none;fillColor=none;align=center;verticalAlign=top;whiteSpace=wrap;rounded=0;glass=0;html=1;" vertex="1" parent="zkfFHV4jXpPFQw0GAbJ--13">
          <mxGeometry y="26" width="240" height="54" as="geometry" />
        </mxCell>
        <mxCell id="zkfFHV4jXpPFQw0GAbJ--15" value="" style="line;html=1;strokeWidth=1;align=left;verticalAlign=middle;spacingTop=-1;spacingLeft=3;spacingRight=3;rotatable=0;labelPosition=right;points=[];portConstraint=eastwest;" parent="zkfFHV4jXpPFQw0GAbJ--13" vertex="1">
          <mxGeometry y="80" width="240" height="8" as="geometry" />
        </mxCell>
        <mxCell id="PG-D2rXeceQ64QqXHUm3-69" value="&lt;div&gt;+ Vector2 Velocity { get {...} }&lt;br&gt;&lt;/div&gt;&lt;div&gt;+ AddVelocitySourceToAggregated(&lt;/div&gt;&lt;div&gt;VelocitySource toAggregate)&lt;br&gt;&lt;/div&gt;" style="text;strokeColor=none;fillColor=none;align=left;verticalAlign=top;whiteSpace=wrap;rounded=0;glass=0;html=1;fontFamily=Courier New;" vertex="1" parent="zkfFHV4jXpPFQw0GAbJ--13">
          <mxGeometry y="88" width="240" height="52" as="geometry" />
        </mxCell>
        <mxCell id="PG-D2rXeceQ64QqXHUm3-111" value="&lt;div&gt;1&lt;/div&gt;&lt;div&gt;&lt;br&gt;&lt;/div&gt;" style="text;html=1;strokeColor=none;fillColor=none;align=center;verticalAlign=middle;whiteSpace=wrap;rounded=0;fontSize=11;fontFamily=Helvetica;fontColor=default;" vertex="1" parent="WIyWlLk6GJQsqaUBKTNV-1">
          <mxGeometry x="320" y="590" width="20" height="20" as="geometry" />
        </mxCell>
        <mxCell id="PG-D2rXeceQ64QqXHUm3-113" value="&lt;div&gt;1&lt;/div&gt;&lt;div&gt;&lt;br&gt;&lt;/div&gt;" style="text;html=1;strokeColor=none;fillColor=none;align=center;verticalAlign=middle;whiteSpace=wrap;rounded=0;fontSize=11;fontFamily=Helvetica;fontColor=default;" vertex="1" parent="WIyWlLk6GJQsqaUBKTNV-1">
          <mxGeometry x="560" y="710" width="20" height="20" as="geometry" />
        </mxCell>
        <mxCell id="PG-D2rXeceQ64QqXHUm3-114" value="&lt;div&gt;1&lt;/div&gt;&lt;div&gt;&lt;br&gt;&lt;/div&gt;" style="text;html=1;strokeColor=none;fillColor=none;align=center;verticalAlign=middle;whiteSpace=wrap;rounded=0;fontSize=11;fontFamily=Helvetica;fontColor=default;" vertex="1" parent="WIyWlLk6GJQsqaUBKTNV-1">
          <mxGeometry x="400" y="550" width="20" height="20" as="geometry" />
        </mxCell>
        <mxCell id="PG-D2rXeceQ64QqXHUm3-115" value="&lt;div&gt;1&lt;/div&gt;&lt;div&gt;&lt;br&gt;&lt;/div&gt;" style="text;html=1;strokeColor=none;fillColor=none;align=center;verticalAlign=middle;whiteSpace=wrap;rounded=0;fontSize=11;fontFamily=Helvetica;fontColor=default;" vertex="1" parent="WIyWlLk6GJQsqaUBKTNV-1">
          <mxGeometry x="500" y="290" width="20" height="20" as="geometry" />
        </mxCell>
        <mxCell id="PG-D2rXeceQ64QqXHUm3-117" value="0..*" style="text;html=1;strokeColor=none;fillColor=none;align=center;verticalAlign=middle;whiteSpace=wrap;rounded=0;fontSize=11;fontFamily=Helvetica;fontColor=default;" vertex="1" parent="WIyWlLk6GJQsqaUBKTNV-1">
          <mxGeometry x="690" y="370" width="20" height="20" as="geometry" />
        </mxCell>
        <mxCell id="PG-D2rXeceQ64QqXHUm3-118" value="&lt;div&gt;1&lt;/div&gt;&lt;div&gt;&lt;br&gt;&lt;/div&gt;" style="text;html=1;strokeColor=none;fillColor=none;align=center;verticalAlign=middle;whiteSpace=wrap;rounded=0;fontSize=11;fontFamily=Helvetica;fontColor=default;" vertex="1" parent="WIyWlLk6GJQsqaUBKTNV-1">
          <mxGeometry x="670" y="1000" width="20" height="20" as="geometry" />
        </mxCell>
        <mxCell id="PG-D2rXeceQ64QqXHUm3-119" value="&lt;div&gt;1&lt;/div&gt;&lt;div&gt;&lt;br&gt;&lt;/div&gt;" style="text;html=1;strokeColor=none;fillColor=none;align=center;verticalAlign=middle;whiteSpace=wrap;rounded=0;fontSize=11;fontFamily=Helvetica;fontColor=default;" vertex="1" parent="WIyWlLk6GJQsqaUBKTNV-1">
          <mxGeometry x="650" y="1255" width="20" height="20" as="geometry" />
        </mxCell>
        <mxCell id="PG-D2rXeceQ64QqXHUm3-120" value="&lt;div&gt;1&lt;/div&gt;&lt;div&gt;&lt;br&gt;&lt;/div&gt;" style="text;html=1;strokeColor=none;fillColor=none;align=center;verticalAlign=middle;whiteSpace=wrap;rounded=0;fontSize=11;fontFamily=Helvetica;fontColor=default;" vertex="1" parent="WIyWlLk6GJQsqaUBKTNV-1">
          <mxGeometry x="1170" y="1255" width="20" height="20" as="geometry" />
        </mxCell>
        <mxCell id="PG-D2rXeceQ64QqXHUm3-122" style="edgeStyle=orthogonalEdgeStyle;rounded=1;orthogonalLoop=1;jettySize=auto;html=1;strokeWidth=3;endArrow=block;endFill=1;curved=0;endSize=12;exitX=0.5;exitY=0;exitDx=0;exitDy=0;entryX=0.5;entryY=1;entryDx=0;entryDy=0;" edge="1" parent="WIyWlLk6GJQsqaUBKTNV-1" source="PG-D2rXeceQ64QqXHUm3-11" target="zkfFHV4jXpPFQw0GAbJ--17">
          <mxGeometry relative="1" as="geometry">
            <mxPoint x="950" y="280" as="sourcePoint" />
            <mxPoint x="600" y="230" as="targetPoint" />
            <Array as="points">
              <mxPoint x="945" y="260" />
              <mxPoint x="555" y="260" />
            </Array>
          </mxGeometry>
        </mxCell>
        <mxCell id="PG-D2rXeceQ64QqXHUm3-123" style="edgeStyle=orthogonalEdgeStyle;rounded=1;orthogonalLoop=1;jettySize=auto;html=1;exitX=0.5;exitY=0;exitDx=0;exitDy=0;entryX=0.5;entryY=1;entryDx=0;entryDy=0;endArrow=block;endFill=1;strokeWidth=3;curved=0;" edge="1" parent="WIyWlLk6GJQsqaUBKTNV-1" source="PG-D2rXeceQ64QqXHUm3-14" target="zkfFHV4jXpPFQw0GAbJ--17">
          <mxGeometry relative="1" as="geometry">
            <mxPoint x="564" y="330" as="sourcePoint" />
            <mxPoint x="955" y="198" as="targetPoint" />
            <Array as="points">
              <mxPoint x="1260" y="260" />
              <mxPoint x="555" y="260" />
            </Array>
          </mxGeometry>
        </mxCell>
        <mxCell id="PG-D2rXeceQ64QqXHUm3-125" value="&lt;div&gt;This is the UML diagram for the physics part of this game base.&lt;/div&gt;&lt;div&gt;&lt;br&gt;&lt;/div&gt;&lt;div&gt;Notes:&lt;/div&gt;&lt;div&gt;- Most fields/properties have been omitted for simplicity.&lt;br&gt;&lt;/div&gt;&lt;div&gt;- All but one VelocitySource and all but one intermediate are omitted for simplicity.&lt;br&gt;&lt;/div&gt;" style="verticalAlign=top;align=left;spacingTop=8;spacingLeft=2;spacingRight=12;shape=cube;size=10;direction=south;fontStyle=0;html=1;whiteSpace=wrap;fontFamily=Helvetica;fontSize=12;fontColor=default;" vertex="1" parent="WIyWlLk6GJQsqaUBKTNV-1">
          <mxGeometry x="790" y="10" width="490" height="150" as="geometry" />
        </mxCell>
        <mxCell id="PG-D2rXeceQ64QqXHUm3-133" style="edgeStyle=orthogonalEdgeStyle;shape=connector;curved=0;rounded=1;orthogonalLoop=1;jettySize=auto;html=1;exitX=1;exitY=0.5;exitDx=0;exitDy=0;labelBackgroundColor=default;strokeColor=default;strokeWidth=3;align=center;verticalAlign=middle;fontFamily=Helvetica;fontSize=11;fontColor=default;endArrow=open;endFill=0;endSize=12;entryX=0;entryY=0.75;entryDx=0;entryDy=0;startArrow=diamondThin;startFill=0;startSize=12;" edge="1" parent="WIyWlLk6GJQsqaUBKTNV-1" source="PG-D2rXeceQ64QqXHUm3-128" target="zkfFHV4jXpPFQw0GAbJ--13">
          <mxGeometry relative="1" as="geometry">
            <mxPoint x="430" y="425" as="targetPoint" />
            <mxPoint x="280" y="350" as="sourcePoint" />
          </mxGeometry>
        </mxCell>
        <mxCell id="PG-D2rXeceQ64QqXHUm3-128" value="VelocityAggregatingKinematicComp" style="swimlane;fontStyle=0;align=center;verticalAlign=top;childLayout=stackLayout;horizontal=1;startSize=26;horizontalStack=0;resizeParent=1;resizeLast=0;collapsible=1;marginBottom=0;rounded=0;shadow=0;strokeWidth=1;fontFamily=Courier New;" vertex="1" parent="WIyWlLk6GJQsqaUBKTNV-1">
          <mxGeometry x="50" y="382" width="260" height="102" as="geometry">
            <mxRectangle x="130" y="380" width="160" height="26" as="alternateBounds" />
          </mxGeometry>
        </mxCell>
        <mxCell id="PG-D2rXeceQ64QqXHUm3-129" value="A KinematicComp that uses a VelocityAggregate&#39;s velocity property as its own velocity." style="text;strokeColor=none;fillColor=none;align=center;verticalAlign=top;whiteSpace=wrap;rounded=0;glass=0;html=1;" vertex="1" parent="PG-D2rXeceQ64QqXHUm3-128">
          <mxGeometry y="26" width="260" height="54" as="geometry" />
        </mxCell>
        <mxCell id="PG-D2rXeceQ64QqXHUm3-130" value="" style="line;html=1;strokeWidth=1;align=left;verticalAlign=middle;spacingTop=-1;spacingLeft=3;spacingRight=3;rotatable=0;labelPosition=right;points=[];portConstraint=eastwest;" vertex="1" parent="PG-D2rXeceQ64QqXHUm3-128">
          <mxGeometry y="80" width="260" height="8" as="geometry" />
        </mxCell>
        <mxCell id="PG-D2rXeceQ64QqXHUm3-132" style="edgeStyle=orthogonalEdgeStyle;rounded=1;orthogonalLoop=1;jettySize=auto;html=1;exitX=0.5;exitY=0;exitDx=0;exitDy=0;strokeWidth=3;endArrow=block;endFill=1;curved=0;endSize=12;entryX=0.5;entryY=1;entryDx=0;entryDy=0;" edge="1" parent="WIyWlLk6GJQsqaUBKTNV-1" source="PG-D2rXeceQ64QqXHUm3-128" target="PG-D2rXeceQ64QqXHUm3-95">
          <mxGeometry relative="1" as="geometry">
            <mxPoint x="220" y="425" as="sourcePoint" />
            <mxPoint x="220" y="355" as="targetPoint" />
          </mxGeometry>
        </mxCell>
        <mxCell id="PG-D2rXeceQ64QqXHUm3-134" value="&lt;div&gt;1&lt;/div&gt;&lt;div&gt;&lt;br&gt;&lt;/div&gt;" style="text;html=1;strokeColor=none;fillColor=none;align=center;verticalAlign=middle;whiteSpace=wrap;rounded=0;fontSize=11;fontFamily=Helvetica;fontColor=default;" vertex="1" parent="WIyWlLk6GJQsqaUBKTNV-1">
          <mxGeometry x="320" y="420" width="20" height="20" as="geometry" />
        </mxCell>
      </root>
    </mxGraphModel>
  </diagram>
</mxfile>
